<?xml version="1.0" encoding="utf-8"?>
<!-- Generator: Adobe Illustrator 24.2.1, SVG Export Plug-In . SVG Version: 6.00 Build 0)  -->
<svg version="1.1" id="Layer_1" xmlns="http://www.w3.org/2000/svg" xmlns:xlink="http://www.w3.org/1999/xlink" x="0px" y="0px"
	 viewBox="0 0 500 515" style="enable-background:new 0 0 500 515;" xml:space="preserve">
<style type="text/css">
	.st0{fill:#3953A3;}
	.st1{fill:#69BC45;}
	.st2{fill:#1A305A;}
	.st3{fill:#EC1E24;}
	.st4{fill:#7F1718;}
</style>
<g>
	<polygon class="st0" points="250.36,515.32 0.37,331.71 0.37,22.43 250.36,136.5 250.36,231.21 53.85,127.87 53.85,289.95 
		250.36,420.62 	"/>
	<polyline class="st1" points="250.36,136.5 0.37,22.43 69.34,0.42 250.36,74.82 431.29,0.47 500.37,22.43 250.12,136.5 	"/>
	<polygon class="st2" points="123.38,164.44 123.6,255.72 53.85,289.95 53.85,127.87 	"/>
	<polygon class="st3" points="250.36,515.32 500.37,331.74 500.37,22.43 250.12,136.5 250.36,231.21 446.87,127.87 446.87,289.95 
		250.36,420.62 	"/>
	<polygon class="st4" points="377.09,164.44 377.09,255.83 446.87,289.95 446.87,127.87 	"/>
	<polyline class="st1" points="250.36,420.62 53.85,289.95 123.6,255.72 250.36,331.71 377.26,255.62 446.87,289.95 250.36,420.62 	
		"/>
</g>
</svg>
